HIERARCHY
ROOT root
{
	OFFSET	0	13.1	24.9
	CHANNELS 6  Xposition Yposition Zposition Xrotation Yrotation Zrotation
	JOINT spine_1
	{
		OFFSET	0	9.99999	0
		CHANNELS 3  Xrotation Yrotation Zrotation
		JOINT spine_2
		{
			OFFSET	0	112	-10
			CHANNELS 3  Xrotation Yrotation Zrotation
			JOINT spine_3
			{
				OFFSET	0	206.5	19.3
				CHANNELS 3  Xrotation Yrotation Zrotation
				JOINT spine_4
				{
					OFFSET	0	110.4	14.6
					CHANNELS 3  Xrotation Yrotation Zrotation
					JOINT neck_1
					{
						OFFSET	0	71.8	-50.3
						CHANNELS 3  Xrotation Yrotation Zrotation
						JOINT neck_2
						{
							OFFSET	0	86.2	-25.8
							CHANNELS 3  Xrotation Yrotation Zrotation
							JOINT head_ee
							{
								OFFSET	0	179.8	-8.7
								CHANNELS 3  Xrotation Yrotation Zrotation
								End Site
								{
									OFFSET	1	0	0
								}
							}
						}
					}
					JOINT left_clavicle
					{
						OFFSET	-43.2	22.4	-70.8
						CHANNELS 3  Xrotation Yrotation Zrotation
						JOINT left_shoulder
						{
							OFFSET	-93.9	-5.79999	48.7
							CHANNELS 3  Xrotation Yrotation Zrotation
							JOINT left_elbow
							{
								OFFSET	-291.4	-30.8	15.2
								CHANNELS 3  Xrotation Yrotation Zrotation
								JOINT left_lowarm_twist
								{
									OFFSET	-110.7	-3.89999	13.6
									CHANNELS 3  Xrotation Yrotation Zrotation
									JOINT left_hand
									{
										OFFSET	-110.7	-3.89999	13.6
										CHANNELS 3  Xrotation Yrotation Zrotation
										JOINT left_ee
										{
											OFFSET	-80.8	-5.10001	12.1
											CHANNELS 3  Xrotation Yrotation Zrotation
											End Site
											{
												OFFSET	1	0	0
											}
										}
									}
								}
							}
						}
					}
					JOINT right_clavicle
					{
						OFFSET	43.2	22.4	-70.8
						CHANNELS 3  Xrotation Yrotation Zrotation
						JOINT right_shoulder
						{
							OFFSET	93.9	-5.79999	48.7
							CHANNELS 3  Xrotation Yrotation Zrotation
							JOINT right_elbow
							{
								OFFSET	291.4	-30.8	15.2
								CHANNELS 3  Xrotation Yrotation Zrotation
								JOINT right_lowarm_twist
								{
									OFFSET	110.7	-3.89999	13.6
									CHANNELS 3  Xrotation Yrotation Zrotation
									JOINT right_hand
									{
										OFFSET	110.7	-3.89999	13.6
										CHANNELS 3  Xrotation Yrotation Zrotation
										JOINT right_ee
										{
											OFFSET	80.8	-5.10001	12.1
											CHANNELS 3  Xrotation Yrotation Zrotation
											End Site
											{
												OFFSET	1	0	0
											}
										}
									}
								}
							}
						}
					}
				}
			}
		}
	}
	JOINT left_hip
	{
		OFFSET	-82.8	-127.5	0.300001
		CHANNELS 3  Xrotation Yrotation Zrotation
		JOINT left_knee
		{
			OFFSET	-28.2	-396.7	2.2
			CHANNELS 3  Xrotation Yrotation Zrotation
			JOINT left_ankle
			{
				OFFSET	-11.7	-411.3	35.4
				CHANNELS 3  Xrotation Yrotation Zrotation
				JOINT left_toes
				{
					OFFSET	0	-60	-88.6
					CHANNELS 3  Xrotation Yrotation Zrotation
					JOINT left_foot_ee
					{
						OFFSET	-22.5	-16.5	-42.2
						CHANNELS 3  Xrotation Yrotation Zrotation
						End Site
						{
							OFFSET	1	0	0
						}
					}
				}
			}
		}
	}
	JOINT right_hip
	{
		OFFSET	82.8	-127.5	0.300001
		CHANNELS 3  Xrotation Yrotation Zrotation
		JOINT right_knee
		{
			OFFSET	28.2	-396.7	2.2
			CHANNELS 3  Xrotation Yrotation Zrotation
			JOINT right_ankle
			{
				OFFSET	11.7	-411.3	35.4
				CHANNELS 3  Xrotation Yrotation Zrotation
				JOINT right_toes
				{
					OFFSET	0	-60	-88.6
					CHANNELS 3  Xrotation Yrotation Zrotation
					JOINT right_foot_ee
					{
						OFFSET	22.5	-16.5	-42.2
						CHANNELS 3  Xrotation Yrotation Zrotation
						End Site
						{
							OFFSET	1	0	0
						}
					}
				}
			}
		}
	}
}
MOTION
Frames: 15
Frame Time: 0.02
2614.2 707.881 -1534.26 0.220163 60.5931 -0.127899 -0.00100837 0.0318402 2.14005 0.00153364 -0.10437 2.13775 -0.00134458 -0.551654 2.06801 -0.00724658 -0.218205 2.12914 -8.94273 18.9468 -1.70676 -9.26927 36.7363 2.97775 -0.0 0.0 -0.0 -1.23201 7.27694 -1.33719 8.64922 -3.46382 55.745 2.31599 -48.9166 1.05354 -25.0335 -1.51758 2.79234 0.989203 -28.1022 -5.51764 -0.0 0.0 -0.0 10.6707 27.6189 -20.1851 -27.4506 35.5516 -62.5705 0.195631 5.53538 -0.00945745 13.7468 -0.278015 1.72982 7.55398 -9.40806 -69.5117 0.0 0.0 0.0 -30.0117 32.7003 16.8492 4.60347 -0.216758 -0.672847 33.9761 -9.63723 -4.45534 -38.9334 0.0 0.0 -0.0 0.0 -0.0 33.0066 30.4343 -21.8445 3.63434 0.166633 0.532648 -24.6753 -9.64812 -3.71184 15.2588 -0.0 -0.0 0.0 0.0 0.0 
2584.99 709.7 -1534.73 0.65222 61.4112 -0.615796 -0.0663832 -0.121135 2.21029 -0.0637033 -0.261501 2.19811 -0.0728048 -0.72069 2.09305 -0.0787158 -0.381171 2.18055 -5.62833 18.1946 -4.72729 -5.27439 37.0761 -1.48945 -0.0 0.0 -0.0 -1.63473 9.99036 -1.6388 8.57195 -3.85351 57.0854 2.2685 -48.3281 1.0179 -27.4009 -1.72143 3.01708 1.3005 -28.7691 -3.83411 -0.0 0.0 -0.0 10.3242 24.7049 -19.7245 -28.4405 37.1867 -62.1511 0.199932 5.6563 -0.00987675 13.5572 -0.277021 1.70564 7.48784 -8.91475 -67.8853 0.0 0.0 0.0 -31.9255 32.281 17.7814 4.49851 -0.211214 -0.657703 31.5693 -9.52461 -4.20527 -38.329 0.0 0.0 -0.0 0.0 -0.0 32.4784 30.599 -21.4868 -0.735169 -0.0295723 -0.108944 -24.7674 -9.16872 -3.72522 14.5917 -0.0 -0.0 0.0 0.0 0.0 
2560.02 705.699 -1533.62 0.760994 61.3809 -1.05955 -0.0534676 0.124768 2.2066 -0.0507587 -0.0158613 2.21006 -0.0501463 -0.48213 2.15692 -0.0566134 -0.135521 2.20596 -5.0886 17.1588 -6.35607 -4.56962 36.2967 -3.57309 -0.0 0.0 -0.0 -2.08468 11.3862 -2.18581 7.30706 -5.76495 58.3386 2.18876 -47.3085 0.958809 -29.5356 -1.9131 3.21242 1.76814 -28.6471 -0.811954 -0.0 0.0 -0.0 10.1911 23.4076 -19.5506 -26.4185 39.0727 -61.6749 0.199701 5.64981 -0.00985406 13.3387 -0.275777 1.67775 7.44378 -9.13763 -67.2202 0.0 0.0 0.0 -32.5655 32.2079 17.9165 1.24863 -0.0534274 -0.184154 30.1772 -9.15687 -4.04917 -37.9922 0.0 0.0 -0.0 0.0 -0.0 32.7461 30.5668 -21.6885 -3.668 -0.133549 -0.546987 -24.4415 -9.29059 -3.67644 14.4359 -0.0 -0.0 0.0 0.0 0.0 
2531.79 705.276 -1537.77 1.14491 60.9503 -1.93834 -0.0705422 0.281085 2.22894 -0.0677889 0.138719 2.2423 -0.0609198 -0.338152 2.221 -0.0678033 0.0167647 2.24652 -4.38675 16.4374 -7.5969 -3.6809 35.8336 -5.26267 -0.0 0.0 -0.0 -2.56878 12.7615 -2.76317 6.08728 -6.70181 59.5217 2.12462 -46.4588 0.91199 -31.0443 -2.05291 3.34614 2.09176 -28.5998 1.26159 -0.0 0.0 -0.0 10.1082 21.9482 -19.4931 -25.7355 40.2468 -62.0054 0.206262 5.83415 -0.0105104 13.0316 -0.273848 1.63857 7.3925 -9.27175 -66.3909 0.0 0.0 0.0 -33.2013 32.2399 17.2417 -1.12904 0.0448393 0.167461 28.6744 -8.66324 -3.875 -37.8863 0.0 0.0 -0.0 0.0 -0.0 32.0188 31.2654 -21.6821 -6.95078 -0.223152 -1.04275 -24.0512 -9.30356 -3.61787 14.1911 -0.0 -0.0 0.0 0.0 0.0 
2512.56 704.729 -1536.47 1.61362 60.8675 -2.25691 -0.246478 0.303282 2.33792 -0.24345 0.153942 2.35247 -0.235393 -0.35366 2.33083 -0.242974 0.0187839 2.35742 -5.5612 17.0715 -6.92156 -5.08704 36.5809 -4.00021 -0.0 0.0 -0.0 -3.14048 13.366 -3.60185 5.39962 -7.48209 60.9471 2.04917 -45.424 0.857765 -32.7774 -2.21782 3.49517 2.76411 -28.8321 5.40805 -0.0 0.0 -0.0 10.1855 21.25 -19.7237 -24.4555 40.7987 -61.4025 0.21461 6.06855 -0.0113759 13.5479 -0.27697 1.70444 7.24294 -8.48024 -63.4674 0.0 0.0 0.0 -32.5772 32.4764 16.3648 -3.51332 0.128627 0.523758 27.8213 -8.5451 -3.77729 -36.4425 0.0 0.0 -0.0 0.0 -0.0 31.2048 31.6021 -21.8189 -9.38398 -0.271156 -1.41301 -20.7777 -7.99908 -3.12453 17.3463 -0.0 -0.0 0.0 0.0 0.0 
2486.39 707.934 -1541.15 3.09793 60.6507 -4.03453 -0.235293 0.490392 2.47443 -0.231948 0.331994 2.5006 -0.215312 -0.210462 2.51374 -0.22408 0.189048 2.51544 -4.19629 15.7637 -7.40298 -3.51453 34.4448 -5.2236 -0.0 0.0 -0.0 -3.2417 14.9691 -3.45154 3.38331 -7.85499 61.4481 1.9964 -44.677 0.820421 -32.3804 -2.17964 3.46147 2.20739 -27.4678 2.5479 -0.0 0.0 -0.0 10.4694 20.7804 -20.3987 -24.1068 41.5983 -61.4076 0.231626 6.54568 -0.0132453 12.6791 -0.271377 1.59362 6.73544 -10.7569 -57.4595 0.0 0.0 0.0 -30.815 33.165 14.7185 -7.99616 0.245704 1.20158 27.3532 -7.22022 -3.70245 -38.1194 0.0 0.0 -0.0 0.0 -0.0 30.0019 33.7981 -22.0926 -12.4125 -0.308874 -1.87613 -16.1972 -7.79493 -2.43047 20.4387 -0.0 -0.0 0.0 0.0 0.0 
2461.65 707.467 -1541.45 3.62087 60.5362 -4.66833 -0.272956 0.390659 2.58965 -0.269254 0.225138 2.60924 -0.256771 -0.340086 2.59677 -0.266173 0.0741479 2.61788 -5.20379 15.8054 -7.51899 -4.66864 34.6628 -4.97901 -0.0 0.0 -0.0 -3.74032 15.1705 -4.21747 1.82359 -8.17115 62.9422 1.77165 -41.2672 0.66715 -33.8675 -2.32383 3.58635 2.5854 -27.9828 4.70411 -0.0 0.0 -0.0 10.55 20.2241 -20.6219 -21.6357 41.6233 -61.2928 0.279399 7.8802 -0.019244 13.4822 -0.276606 1.69606 6.96339 -11.2977 -60.7251 0.0 0.0 0.0 -31.8052 32.6712 14.5276 -8.63986 0.258146 1.29957 26.1337 -9.15198 -3.59431 -38.4275 0.0 0.0 -0.0 0.0 -0.0 28.1607 35.9555 -21.6154 -13.2273 -0.314838 -2.001 -12.533 -6.76518 -1.87531 17.5088 -0.0 -0.0 0.0 0.0 0.0 
2432.47 715.27 -1541.03 7.38401 59.9372 -9.05051 -0.416914 0.576158 2.87757 -0.412393 0.391963 2.90837 -0.389355 -0.24798 2.92415 -0.401221 0.216744 2.92663 -7.45706 15.0383 -6.74779 -7.32131 32.7805 -3.54772 -0.0 0.0 -0.0 -3.76884 15.9542 -4.09573 -0.400882 -9.44188 63.5718 1.60534 -38.4902 0.560489 -34.0474 -2.34149 3.6012 2.85138 -28.589 6.08801 -0.0 0.0 -0.0 11.1441 24.5318 -21.5913 -19.8239 42.1774 -61.69 0.387467 10.8654 -0.0368497 13.974 -0.279099 1.75882 6.66979 -12.7955 -57.3915 0.0 0.0 0.0 -29.9146 32.9131 12.6204 -14.8076 0.321341 2.24336 26.1848 -8.60317 -3.59081 -39.4788 0.0 0.0 -0.0 0.0 -0.0 23.3711 38.3824 -19.9852 -16.8771 -0.319746 -2.56087 -5.80595 -9.16955 -0.859984 19.3596 -0.0 -0.0 0.0 0.0 0.0 
2403.85 719.217 -1544.58 7.49332 59.8266 -9.23224 -0.172694 0.559243 2.86037 -0.168221 0.376175 2.89012 -0.146473 -0.247134 2.90399 -0.158176 0.2144 2.90659 -7.28887 15.433 -6.80778 -7.12715 33.5511 -3.57847 -0.0 0.0 -0.0 -3.945 16.7155 -4.20999 -2.08763 -9.71268 64.8583 1.26514 -32.0746 0.363679 -33.5452 -2.2923 3.5596 2.15029 -28.7889 1.54042 -0.0 0.0 -0.0 11.0536 25.5259 -21.2834 -17.423 43.0746 -62.0815 0.509985 14.1783 -0.0634242 14.3949 -0.280806 1.81256 6.41176 -13.9386 -54.6346 0.0 0.0 0.0 -27.4649 33.2158 11.0894 -19.9497 0.296234 3.03166 28.7599 -7.50878 -3.86464 -39.8998 0.0 0.0 -0.0 0.0 -0.0 17.6348 39.8102 -17.4706 -13.9328 -0.318568 -2.10919 1.93322 -9.20764 0.281591 13.2509 -0.0 -0.0 0.0 0.0 0.0 
2385.25 717.947 -1547.53 8.89645 59.4013 -11.4462 -0.198314 0.605447 3.07821 -0.193136 0.408443 3.11046 -0.167709 -0.263631 3.12605 -0.181269 0.23313 3.12847 -10.4385 15.0459 -4.6804 -10.7686 31.4787 -0.518763 -0.0 0.0 -0.0 -4.58686 17.3699 -5.07003 -3.35421 -10.6196 65.8102 1.08756 -28.3126 0.274321 -34.4308 -2.37928 3.63267 2.22772 -28.4529 2.1955 -0.0 0.0 -0.0 11.3323 27.6239 -21.6746 -15.1153 43.2124 -62.3035 0.611939 16.8641 -0.0907139 15.1616 -0.282899 1.91046 5.59431 -17.5247 -46.9592 0.0 0.0 0.0 -24.489 33.3932 9.52913 -25.5504 0.188622 3.88402 30.9722 -6.22105 -4.08354 -40.1306 0.0 0.0 -0.0 0.0 -0.0 12.649 40.1832 -14.496 -13.3551 -0.315613 -2.02059 7.49845 -8.04817 1.07472 9.81484 -0.0 -0.0 0.0 0.0 0.0 
2355.75 726.208 -1548.18 11.5524 60.3402 -14.5083 -0.345371 0.693658 3.21022 -0.339771 0.488089 3.2478 -0.308233 -0.223026 3.27666 -0.323091 0.296976 3.27079 -9.47225 15.4218 -6.13225 -9.65774 33.1252 -2.15354 -0.0 0.0 -0.0 -4.81901 18.0172 -5.27511 -4.88672 -11.3938 67.2112 0.918057 -24.4547 0.198953 -34.5691 -2.39297 3.64396 1.963 -28.5034 0.491779 -0.0 0.0 -0.0 11.2106 27.749 -21.3847 -13.8219 43.3659 -62.6337 0.687718 18.8128 -0.113931 15.7058 -0.28359 1.97996 5.83208 -16.9217 -49.1506 0.0 0.0 0.0 -21.5372 33.8097 6.97848 -30.3845 0.0291462 4.60857 33.595 -6.81602 -4.36358 -39.6763 0.0 0.0 -0.0 0.0 -0.0 9.23415 41.6558 -12.9702 -15.1493 -0.321869 -2.29579 13.3344 -5.51357 1.87378 10.4061 -0.0 -0.0 0.0 0.0 0.0 
2332.46 726.109 -1550.09 12.3479 60.5775 -15.4035 -0.483334 0.686022 3.28091 -0.477472 0.475977 3.31786 -0.445671 -0.258008 3.34186 -0.46115 0.272711 3.34069 -11.7841 15.3296 -5.52335 -12.3038 32.5833 -0.808076 -0.0 0.0 -0.0 -5.04291 18.4261 -5.51959 -6.01485 -12.1419 68.3218 0.780259 -21.1323 0.145547 -34.539 -2.38999 3.64151 1.71221 -27.6806 -0.712858 -0.0 0.0 -0.0 11.4787 28.5371 -21.8919 -11.7843 43.9442 -61.3575 0.778964 21.1003 -0.14508 15.9334 -0.283683 2.00903 5.49019 -17.7256 -46.0209 0.0 0.0 0.0 -18.9612 34.0931 5.54444 -33.9949 -0.129561 5.13974 34.591 -6.29514 -4.45383 -39.6628 0.0 0.0 -0.0 0.0 -0.0 6.49958 39.6306 -11.435 -16.7209 -0.320267 -2.53691 18.3213 -7.64494 2.52053 9.94835 -0.0 -0.0 0.0 0.0 0.0 
2318.84 728.886 -1550.02 13.8586 60.2864 -16.8583 -0.64568 0.652759 3.32421 -0.63964 0.44003 3.35896 -0.609286 -0.31176 3.37327 -0.625092 0.224583 3.38018 -13.0246 15.1732 -4.49751 -13.7001 31.6531 0.524239 -0.0 0.0 -0.0 -4.87929 16.8678 -5.65366 -6.97138 -12.2179 69.2132 0.60955 -16.802 0.090022 -33.4668 -2.28466 3.55306 1.59649 -26.7681 -1.02733 -0.0 0.0 -0.0 11.5196 28.4081 -22.0007 -12.5845 44.4778 -61.2523 0.891634 23.8302 -0.188146 14.4567 -0.281023 1.82045 4.97797 -18.4046 -41.6062 0.0 0.0 0.0 -15.9592 34.2621 4.22592 -37.3628 -0.307573 5.62554 34.5651 -4.5591 -4.42521 -40.0357 0.0 0.0 -0.0 0.0 -0.0 4.84056 38.4232 -10.5725 -17.7726 -0.315501 -2.6982 18.4785 -7.86047 2.54048 8.62984 -0.0 -0.0 0.0 0.0 0.0 
2303.75 734.069 -1549.09 12.8056 59.7502 -15.5286 -0.731403 0.70957 3.17417 -0.725941 0.506259 3.21283 -0.693116 -0.219539 3.24502 -0.707687 0.295432 3.239 -14.1223 13.8537 -3.9855 -14.7861 28.8364 0.854737 -0.0 0.0 -0.0 -4.62025 16.2635 -5.38742 -9.47407 -11.9742 70.7713 0.462803 -12.9126 0.0523725 -32.8681 -2.22657 3.50283 1.14594 -25.0263 -3.13877 -0.0 0.0 -0.0 11.6592 27.8757 -22.3835 -11.078 45.1099 -60.6511 0.994882 26.2352 -0.231844 13.5094 -0.276758 1.69953 3.97696 -19.2985 -33.8407 0.0 0.0 0.0 -11.0982 35.0256 2.67091 -40.5173 -0.500006 6.07054 34.1735 -3.11645 -4.36837 -40.1587 0.0 0.0 -0.0 0.0 -0.0 3.43352 36.8146 -9.65859 -16.7513 -0.320171 -2.54157 15.9073 -6.53862 2.21131 7.87481 -0.0 -0.0 0.0 0.0 0.0 
2280.96 735.43 -1548.64 13.1477 59.8378 -15.6991 -0.6368 0.769352 3.06528 -0.631755 0.572838 3.10797 -0.596552 -0.125893 3.15776 -0.610271 0.374145 3.13806 -14.8742 12.9135 -3.62622 -15.5083 26.8284 1.04128 -0.0 0.0 -0.0 -4.16852 15.724 -4.78749 -12.1313 -11.8717 72.0315 0.358393 -10.0674 0.0315679 -32.4368 -2.18505 3.46627 0.750188 -22.6328 -4.66424 -0.0 0.0 -0.0 11.7692 27.517 -22.6771 -10.3485 45.5636 -60.1673 1.07008 27.9267 -0.266082 12.5471 -0.27038 1.57679 2.97395 -20.0868 -26.8837 0.0 0.0 0.0 -6.66838 34.257 -0.547199 -46.895 -0.962627 6.93512 37.5423 -2.57291 -4.68205 -39.553 0.0 0.0 -0.0 0.0 -0.0 0.623835 35.7901 -8.22049 -16.2141 -0.321506 -2.45917 14.4051 -5.25164 2.01607 8.27237 -0.0 -0.0 0.0 0.0 0.0 
